<svg width="24" height="22" fill="none" xmlns="http://www.w3.org/2000/svg"><path d="M20.459.5H3.541A3.212 3.212 0 0 0 .333 3.71v14.578A3.213 3.213 0 0 0 3.542 21.5h16.916c1.77 0 3.209-1.44 3.209-3.212V3.711A3.212 3.212 0 0 0 20.458.5ZM3.541 2.25h16.916c.806 0 1.459.653 1.459 1.458v.833l-9.392 6.262a.945.945 0 0 1-1.05-.003L2.083 4.541v-.833c0-.805.654-1.458 1.459-1.458Zm16.916 17.498H3.543a1.459 1.459 0 0 1-1.458-1.459V6.592l8.446 5.635a2.642 2.642 0 0 0 2.94.002l8.447-5.636v11.693c0 .805-.654 1.458-1.459 1.458v.004Z" fill="#000"/></svg>