<svg width="26" height="26" fill="none" xmlns="http://www.w3.org/2000/svg"><path d="M17.958 10.667a2.045 2.045 0 0 0-2.041 2.041c0 1.124.914 2.042 2.041 2.042A2.045 2.045 0 0 0 20 12.708a2.045 2.045 0 0 0-2.042-2.041Zm0 2.916a.875.875 0 1 1 0-1.75.875.875 0 0 1 0 1.75Zm-5.25-2.916a2.045 2.045 0 0 0-2.042 2.041c0 1.124.916 2.042 2.042 2.042a2.045 2.045 0 0 0 2.042-2.042 2.044 2.044 0 0 0-2.042-2.041Zm0 2.916a.875.875 0 1 1 0-1.75.875.875 0 0 1 0 1.75Zm-5.25-2.916a2.045 2.045 0 0 0-2.042 2.041c0 1.124.916 2.042 2.042 2.042A2.045 2.045 0 0 0 9.5 12.708a2.046 2.046 0 0 0-2.042-2.041Zm0 2.916a.875.875 0 1 1 0-1.75.875.875 0 0 1 0 1.75Z" fill="#000"/><path d="M12.708 25.25C5.792 25.25.167 19.624.167 12.708.167 5.792 5.792.167 12.708.167S25.25 5.792 25.25 12.708 19.624 25.25 12.708 25.25Zm0-23.333c-5.95 0-10.791 4.841-10.791 10.791S6.758 23.5 12.708 23.5 23.5 18.658 23.5 12.708 18.658 1.917 12.708 1.917Z" fill="#000"/></svg>