<svg width="20" height="24" fill="none" xmlns="http://www.w3.org/2000/svg"><path d="M9.97 12.188c-1.582 0-3.35-.175-4.48-1.466-.95-1.085-1.256-2.762-.939-5.124C4.994 2.301 7.02.333 9.97.333c2.952 0 4.978 1.968 5.42 5.265.318 2.362.01 4.037-.94 5.125-1.131 1.29-2.899 1.464-4.48 1.464Zm6.824 11.492H3.146a2.404 2.404 0 0 1-1.925-.918C.73 22.14.55 21.281.743 20.466c.973-4.118 4.767-6.996 9.226-6.996 4.459 0 8.253 2.877 9.228 6.996.192.815.012 1.674-.48 2.295-.467.59-1.15.916-1.923.916v.003Z" fill="#000"/></svg>